<svg xmlns="http://www.w3.org/2000/svg" width="24" height="24" viewBox="0 0 24 24" fill="none">
  <path d="M18.9982 13.8647C18.9987 14.1295 18.9175 14.3861 18.7687 14.59C18.6849 14.7048 18.5821 14.7996 18.466 14.8692C18.3499 14.9387 18.2229 14.9815 18.0922 14.9952C17.9615 15.0089 17.8297 14.9932 17.7044 14.9489C17.5791 14.9047 17.4626 14.8328 17.3618 14.7374L12.0137 9.66033L6.65557 14.556C6.5535 14.6502 6.43607 14.7205 6.31001 14.7629C6.18395 14.8053 6.05175 14.819 5.92101 14.8032C5.79027 14.7874 5.66357 14.7424 5.54819 14.6708C5.43281 14.5992 5.33103 14.5025 5.24869 14.386C5.15785 14.2688 5.08934 14.1315 5.04744 13.9827C5.00554 13.834 4.99117 13.677 5.00522 13.5216C5.01928 13.3663 5.06145 13.2159 5.12911 13.0799C5.19676 12.9439 5.28842 12.8253 5.39835 12.7315L11.3851 7.2578C11.5636 7.09112 11.7876 7 12.0187 7C12.2498 7 12.4737 7.09112 12.6523 7.2578L18.639 12.9241C18.7597 13.0378 18.8552 13.1822 18.9176 13.3457C18.98 13.5091 19.0076 13.6869 18.9982 13.8647Z" fill="#888B97"/>
</svg>